<svg width="90" height="90" viewBox="0 0 90 90" fill="none" xmlns="http://www.w3.org/2000/svg">
<g clip-path="url(#clip0)">
<path d="M44.9 89.8C69.6976 89.8 89.8 69.6976 89.8 44.9C89.8 20.1024 69.6976 0 44.9 0C20.1024 0 0 20.1024 0 44.9C0 69.6976 20.1024 89.8 44.9 89.8Z" fill="#FFB703"/>
<path d="M56.188 46.658H48.176V76.009H36.037V46.658H30.264V36.342H36.037V29.667C36.037 24.894 38.305 17.419 48.284 17.419L57.276 17.456V27.469H50.752C49.682 27.469 48.177 28.004 48.177 30.281V36.352H57.248L56.188 46.658Z" fill="white"/>
</g>
<defs>
<clipPath id="clip0">
<rect width="89.8" height="89.8" fill="white"/>
</clipPath>
</defs>
</svg>
