<svg width="90" height="90" viewBox="0 0 90 90" fill="none" xmlns="http://www.w3.org/2000/svg">
<g clip-path="url(#clip0)">
<path d="M44.9 0C69.681 0 89.8 20.119 89.8 44.9C89.8 69.681 69.681 89.8 44.9 89.8C20.119 89.8 0 69.681 0 44.9C0 20.119 20.119 0 44.9 0Z" fill="#FFB703"/>
<path d="M71.746 31.431C71.101 29.032 69.209 27.141 66.811 26.495C62.428 25.296 44.899 25.296 44.899 25.296C44.899 25.296 27.371 25.296 22.989 26.449C20.636 27.094 18.699 29.032 18.053 31.431C16.9 35.813 16.9 44.9 16.9 44.9C16.9 44.9 16.9 54.033 18.053 58.369C18.699 60.768 20.59 62.659 22.989 63.305C27.417 64.504 44.9 64.504 44.9 64.504C44.9 64.504 62.428 64.504 66.811 63.351C69.21 62.705 71.101 60.814 71.747 58.415C72.9 54.033 72.9 44.946 72.9 44.946C72.9 44.946 72.946 35.813 71.746 31.431ZM39.318 53.295V36.505L53.895 44.9L39.318 53.295Z" fill="white"/>
</g>
<defs>
<clipPath id="clip0">
<rect width="89.8" height="89.8" fill="white"/>
</clipPath>
</defs>
</svg>
